<?xml version="1.0" encoding="utf-8"?>
<!-- Generator: Adobe Illustrator 22.0.0, SVG Export Plug-In . SVG Version: 6.00 Build 0)  -->
<svg version="1.1" id="Layer_1" xmlns="http://www.w3.org/2000/svg" xmlns:xlink="http://www.w3.org/1999/xlink" x="0px" y="0px"
	 viewBox="0 0 760.4 423.9" style="enable-background:new 0 0 760.4 423.9;" xml:space="preserve">
<style type="text/css">
	.st0{fill-rule:evenodd;clip-rule:evenodd;fill:#007751;}
	.st1{fill-rule:evenodd;clip-rule:evenodd;fill:#FFFFFF;}
	.st2{fill:#FFFFFF;}
	.st3{fill:none;stroke:#6D6F71;stroke-width:0.216;stroke-miterlimit:22.9256;}
	.st4{fill:#FFFFFF;stroke:#6D6F71;stroke-width:0.216;stroke-miterlimit:22.9256;}
	.st5{fill:#F7AB32;}
	.st6{font-family:'AgencyFB-Bold';}
	.st7{font-size:130px;}
</style>
<path class="st0" d="M122,36.2h515.4c57.9,0,105.3,24,105.3,53.4v249.2c0,29.4-47.4,53.4-105.3,53.4H122
	c-57.9,0-105.3-24-105.3-53.4V89.6C16.7,60.2,64.1,36.2,122,36.2z"/>
<path class="st1" d="M35.6,327l32.5-226.5l43.9-0.1L144.6,327l-23.8,0.1l-9.8-68.8l-41.5,0.1l-9.8,68.8L35.6,327L35.6,327z
	 M75.7,212.4l28.8,0L97,147.5H83.3L75.7,212.4z"/>
<polygon class="st1" points="185.7,326.7 185.7,100.5 162,100.4 149.4,131.5 149.4,153.5 162,153.5 161.9,326.8 "/>
<g>
	<g>
		<g>
			<g>
				<path class="st2" d="M622.3,111V94.6h-27.4l1.1,11.7h14.8L611,138l-47.3-0.2v11.7h45.8l0.2,8h-20.5v11.7l18.4,0.2l0.1,4.3h87.5
					l21.7-62.6H622.3z M687.2,163.2h-69v-13.5l10.8-0.2l-0.2-11.9l-9.7-0.4v-14.7h2.7h79.8L687.2,163.2z"/>
			</g>
			<g>
				<path class="st3" d="M622.3,111V94.6h-27.4l1.1,11.7h14.8L611,138l-47.3-0.2v11.7h45.8l0.2,8h-20.5v11.7l18.4,0.2l0.1,4.3h87.5
					l21.7-62.6H622.3z M687.2,163.2h-69v-13.5l10.8-0.2l-0.2-11.9l-9.7-0.4v-14.7h2.7h79.8L687.2,163.2z"/>
			</g>
		</g>
		<g>
			<polygon class="st2" points="603.6,118.6 582.2,118.6 582.2,131.5 602.9,131.5 			"/>
			<polygon class="st3" points="603.6,118.6 582.2,118.6 582.2,131.5 602.9,131.5 			"/>
		</g>
		<g>
			<path class="st2" d="M673.7,181.6h-48.3c2.6,1.5,4.5,4.3,5.5,7.6h35.5C668.2,185.7,670.8,183.1,673.7,181.6z"/>
			<path class="st3" d="M673.7,181.6h-48.3c2.6,1.5,4.5,4.3,5.5,7.6h35.5C668.2,185.7,670.8,183.1,673.7,181.6z"/>
		</g>
		<path class="st4" d="M684.4,181.6H684c0.2,0.1,0.3,0.2,0.4,0.3V181.6z"/>
		<path class="st4" d="M614.9,181.6L614.9,181.6c0.1,0,0.1,0,0.2,0H614.9z"/>
		<g>
			<g>
				<path class="st2" d="M684.4,181.9v7.3h-18.1c-0.5,0.9-1,1.9-1.3,3c-3.3,8.9-0.6,18.5,5.9,21.3c6.6,2.8,14.6-2.2,17.9-11.1
					C691.8,194.1,689.8,185.5,684.4,181.9z M680.8,198.9c-1.1,3-3.8,4.6-5.9,3.7c-2.2-0.9-3.1-4.1-2-7.1c1.1-3,3.8-4.6,5.9-3.7
					C681,192.8,681.9,195.9,680.8,198.9z"/>
			</g>
			<g>
				<path class="st3" d="M684.4,181.9v7.3h-18.1c-0.5,0.9-1,1.9-1.3,3c-3.3,8.9-0.6,18.5,5.9,21.3c6.6,2.8,14.6-2.2,17.9-11.1
					C691.8,194.1,689.8,185.5,684.4,181.9z M680.8,198.9c-1.1,3-3.8,4.6-5.9,3.7c-2.2-0.9-3.1-4.1-2-7.1c1.1-3,3.8-4.6,5.9-3.7
					C681,192.8,681.9,195.9,680.8,198.9z"/>
			</g>
		</g>
		<g>
			<path class="st2" d="M684.4,181.9c-0.1-0.1-0.3-0.2-0.4-0.3h-10.3c-2.9,1.5-5.5,4.1-7.4,7.6h18.1V181.9z"/>
			<path class="st3" d="M684.4,181.9c-0.1-0.1-0.3-0.2-0.4-0.3h-10.3c-2.9,1.5-5.5,4.1-7.4,7.6h18.1V181.9z"/>
		</g>
		<g>
			<g>
				<path class="st2" d="M614.9,181.7c-3.6,1.9-6.8,5.6-8.5,10.5c-3.3,8.9-0.6,18.5,5.9,21.3c6.6,2.8,14.6-2.2,17.9-11.1
					c1.7-4.5,1.8-9.2,0.7-13.1h-15.9V181.7z M620.2,191.8c2.2,0.9,3.1,4.1,2,7.1c-1.1,3-3.8,4.6-5.9,3.7c-2.2-0.9-3.1-4.1-2-7.1
					C615.4,192.6,618.1,190.9,620.2,191.8z"/>
			</g>
			<g>
				<path class="st3" d="M614.9,181.7c-3.6,1.9-6.8,5.6-8.5,10.5c-3.3,8.9-0.6,18.5,5.9,21.3c6.6,2.8,14.6-2.2,17.9-11.1
					c1.7-4.5,1.8-9.2,0.7-13.1h-15.9V181.7z M620.2,191.8c2.2,0.9,3.1,4.1,2,7.1c-1.1,3-3.8,4.6-5.9,3.7c-2.2-0.9-3.1-4.1-2-7.1
					C615.4,192.6,618.1,190.9,620.2,191.8z"/>
			</g>
		</g>
		<g>
			<path class="st2" d="M625.4,181.6h-10.3c-0.1,0-0.1,0-0.2,0.1v7.5h15.9C629.9,185.9,628,183.2,625.4,181.6z"/>
			<path class="st3" d="M625.4,181.6h-10.3c-0.1,0-0.1,0-0.2,0.1v7.5h15.9C629.9,185.9,628,183.2,625.4,181.6z"/>
		</g>
	</g>
</g>
<g>
	<text transform="matrix(1.2543 0 0 1 195.7241 200.0624)"><tspan x="0" y="0" class="st5 st6 st7">SUPER</tspan><tspan x="0" y="125" class="st5 st6 st7">MERCADO</tspan></text>
</g>
</svg>
